<svg width="24" height="24" viewBox="0 0 24 24" fill="none" xmlns="http://www.w3.org/2000/svg">
<path d="M4.00426 18V7.81818H7.82244C8.60464 7.81818 9.26089 7.95407 9.79119 8.22585C10.3248 8.49763 10.7275 8.87879 10.9993 9.36932C11.2744 9.85653 11.4119 10.425 11.4119 11.0746C11.4119 11.7275 11.2727 12.2943 10.9943 12.7749C10.7192 13.2521 10.3132 13.6217 9.77628 13.8835C9.23935 14.142 8.57978 14.2713 7.79759 14.2713H5.07812V12.7401H7.54901C8.00639 12.7401 8.38092 12.6771 8.67259 12.5511C8.96425 12.4219 9.17969 12.2346 9.31889 11.9893C9.46141 11.7408 9.53267 11.4358 9.53267 11.0746C9.53267 10.7133 9.46141 10.4051 9.31889 10.1499C9.17637 9.89134 8.95928 9.69579 8.66761 9.56321C8.37595 9.42732 7.99976 9.35938 7.53906 9.35938H5.84872V18H4.00426ZM9.2642 13.3864L11.7848 18H9.72656L7.25071 13.3864H9.2642ZM12.6623 9.36435V7.81818H20.7859V9.36435H17.6388V18H15.8093V9.36435H12.6623Z" fill="#555555"/>
</svg>
