<svg width="24" height="24" viewBox="0 0 24 24" fill="none" xmlns="http://www.w3.org/2000/svg">
<path d="M9.82528 11.0696C9.74242 10.8011 9.62808 10.5608 9.48224 10.3487C9.33973 10.1333 9.16738 9.94934 8.9652 9.79688C8.76634 9.64441 8.53764 9.53007 8.27912 9.45383C8.0206 9.37429 7.73887 9.33452 7.43395 9.33452C6.88707 9.33452 6.39986 9.47206 5.9723 9.74716C5.54474 10.0223 5.20833 10.4266 4.96307 10.9602C4.72112 11.4905 4.60014 12.1368 4.60014 12.8991C4.60014 13.6681 4.72112 14.3194 4.96307 14.853C5.20502 15.3866 5.54143 15.7926 5.9723 16.071C6.40317 16.3461 6.90365 16.4837 7.47372 16.4837C7.99077 16.4837 8.43821 16.3842 8.81605 16.1854C9.19721 15.9865 9.49053 15.7048 9.69602 15.3402C9.90152 14.9723 10.0043 14.5414 10.0043 14.0476L10.4219 14.1122H7.65767V12.6705H11.7891V13.8935C11.7891 14.7652 11.6035 15.5192 11.2322 16.1555C10.861 16.7919 10.3506 17.2824 9.70099 17.6271C9.05137 17.9685 8.30563 18.1392 7.46378 18.1392C6.52581 18.1392 5.70218 17.9287 4.9929 17.5078C4.28693 17.0836 3.73509 16.482 3.33736 15.7031C2.94295 14.9209 2.74574 13.9929 2.74574 12.919C2.74574 12.0971 2.86174 11.3629 3.09375 10.7166C3.32907 10.0703 3.6572 9.52178 4.07812 9.07102C4.49905 8.61695 4.9929 8.27225 5.55966 8.03693C6.12642 7.7983 6.7429 7.67898 7.40909 7.67898C7.97254 7.67898 8.49787 7.76184 8.98509 7.92756C9.4723 8.08996 9.90483 8.32197 10.2827 8.62358C10.6638 8.92519 10.977 9.28314 11.2223 9.69744C11.4676 10.1117 11.6283 10.5691 11.7045 11.0696H9.82528ZM17.0229 18H13.5726V7.81818H17.0925C18.1034 7.81818 18.9718 8.02202 19.6976 8.42969C20.4268 8.83404 20.9869 9.41572 21.378 10.1747C21.7691 10.9337 21.9647 11.8419 21.9647 12.8991C21.9647 13.9598 21.7675 14.8712 21.373 15.6335C20.9819 16.3958 20.4168 16.9808 19.6777 17.3885C18.9419 17.7962 18.057 18 17.0229 18ZM15.4171 16.4041H16.9334C17.6427 16.4041 18.2343 16.2749 18.7083 16.0163C19.1822 15.7545 19.5385 15.3651 19.7772 14.848C20.0158 14.3277 20.1351 13.678 20.1351 12.8991C20.1351 12.1203 20.0158 11.474 19.7772 10.9602C19.5385 10.4432 19.1855 10.0571 18.7182 9.80185C18.2542 9.54332 17.6775 9.41406 16.9881 9.41406H15.4171V16.4041Z" fill="#555555"/>
</svg>
