<svg width="24" height="24" viewBox="0 0 24 24" fill="none" xmlns="http://www.w3.org/2000/svg">
<path d="M4.31179 18H2.34304L5.92756 7.81818H8.20455L11.794 18H9.82528L7.10582 9.90625H7.02628L4.31179 18ZM4.37642 14.0078H9.74574V15.4893H4.37642V14.0078ZM19.4776 11.0696C19.3948 10.8011 19.2804 10.5608 19.1346 10.3487C18.9921 10.1333 18.8197 9.94934 18.6175 9.79688C18.4187 9.64441 18.19 9.53007 17.9315 9.45383C17.6729 9.37429 17.3912 9.33452 17.0863 9.33452C16.5394 9.33452 16.0522 9.47206 15.6246 9.74716C15.1971 10.0223 14.8607 10.4266 14.6154 10.9602C14.3735 11.4905 14.2525 12.1368 14.2525 12.8991C14.2525 13.6681 14.3735 14.3194 14.6154 14.853C14.8574 15.3866 15.1938 15.7926 15.6246 16.071C16.0555 16.3461 16.556 16.4837 17.1261 16.4837C17.6431 16.4837 18.0906 16.3842 18.4684 16.1854C18.8496 15.9865 19.1429 15.7048 19.3484 15.3402C19.5539 14.9723 19.6566 14.5414 19.6566 14.0476L20.0742 14.1122H17.31V12.6705H21.4414V13.8935C21.4414 14.7652 21.2558 15.5192 20.8846 16.1555C20.5134 16.7919 20.003 17.2824 19.3533 17.6271C18.7037 17.9685 17.958 18.1392 17.1161 18.1392C16.1781 18.1392 15.3545 17.9287 14.6452 17.5078C13.9393 17.0836 13.3874 16.482 12.9897 15.7031C12.5953 14.9209 12.3981 13.9929 12.3981 12.919C12.3981 12.0971 12.5141 11.3629 12.7461 10.7166C12.9814 10.0703 13.3095 9.52178 13.7305 9.07102C14.1514 8.61695 14.6452 8.27225 15.212 8.03693C15.7788 7.7983 16.3952 7.67898 17.0614 7.67898C17.6249 7.67898 18.1502 7.76184 18.6374 7.92756C19.1246 8.08996 19.5572 8.32197 19.935 8.62358C20.3162 8.92519 20.6294 9.28314 20.8746 9.69744C21.1199 10.1117 21.2807 10.5691 21.3569 11.0696H19.4776Z" fill="#555555"/>
</svg>
